<?xml version="1.0" standalone="no"?>
<!DOCTYPE svg PUBLIC "-//W3C//DTD SVG 20010904//EN"
 "http://www.w3.org/TR/2001/REC-SVG-20010904/DTD/svg10.dtd">
<svg version="1.0" xmlns="http://www.w3.org/2000/svg"
 width="2560.000000pt" height="1069.000000pt" viewBox="0 0 2560.000000 1069.000000"
 preserveAspectRatio="xMidYMid meet">

<g transform="translate(0.000000,1069.000000) scale(0.100000,-0.100000)"
fill="#000000" stroke="none">
<path d="M8765 10679 c-2725 -95 -5240 -891 -6870 -2173 -189 -148 -367 -307
-550 -491 -845 -845 -1261 -1778 -1232 -2760 7 -214 22 -347 62 -546 268
-1320 1384 -2533 3136 -3410 2339 -1170 5541 -1586 8461 -1098 1564 261 2986
761 4153 1462 388 233 783 519 1095 793 114 100 147 134 98 102 -67 -44 -286
-163 -458 -249 -1130 -566 -2576 -936 -4205 -1078 -533 -47 -751 -55 -1450
-56 -664 0 -799 4 -1265 41 -1566 122 -3034 484 -4230 1044 -567 266 -1089
596 -1500 949 -145 125 -390 374 -501 511 -349 430 -542 843 -615 1320 -22
139 -25 451 -6 585 76 538 342 1062 768 1514 73 78 89 90 95 75 3 -11 249
-940 545 -2066 l538 -2048 381 0 381 0 534 1896 c360 1276 537 1890 542 1877
6 -15 1025 -3673 1045 -3751 l5 -22 384 0 c211 0 384 2 384 4 0 3 295 1088
655 2411 360 1324 655 2408 655 2411 0 2 -192 4 -427 4 l-428 0 -424 -1838
c-233 -1010 -427 -1842 -430 -1849 -3 -7 -238 819 -522 1835 l-515 1847 -394
0 -395 0 -515 -1847 c-327 -1173 -518 -1841 -522 -1830 -9 20 -818 3518 -818
3536 0 15 120 99 310 218 1218 762 2907 1275 4775 1453 542 51 883 66 1485 66
699 0 1233 -28 1845 -97 1714 -193 3174 -635 4305 -1302 41 -24 -96 106 -235
222 -581 486 -1335 938 -2150 1289 -1760 757 -3841 1121 -5980 1046z"/>
<path d="M18110 7693 c-791 -44 -1431 -457 -1765 -1138 -181 -369 -265 -752
-265 -1205 0 -441 78 -802 250 -1155 348 -713 988 -1117 1822 -1152 393 -16
751 90 1023 302 82 64 209 190 260 259 26 34 30 36 37 20 4 -11 26 -116 48
-234 23 -118 43 -223 46 -232 5 -17 29 -18 315 -18 l309 0 0 1200 0 1200 -930
0 -930 0 0 -365 0 -365 490 0 c270 0 490 -3 490 -7 0 -34 -34 -206 -55 -277
-27 -94 -85 -217 -137 -294 -49 -73 -156 -173 -240 -226 -285 -177 -766 -205
-1104 -65 -160 67 -357 233 -456 384 -254 391 -335 969 -214 1536 42 201 116
384 217 539 55 83 216 246 294 295 191 122 385 175 633 175 293 0 508 -83 687
-264 109 -110 167 -209 221 -372 l37 -114 459 0 458 0 0 36 c0 62 -47 275 -85
384 -172 491 -566 868 -1095 1044 -269 90 -535 125 -820 109z"/>
<path d="M20800 5365 l0 -2225 1563 2 1562 3 0 410 0 410 -1077 3 -1078 2 -2
1808 -3 1807 -482 3 -483 2 0 -2225z"/>
<path d="M12680 5295 l0 -2195 300 0 300 0 0 147 0 147 79 -81 c133 -138 289
-226 488 -275 121 -30 399 -32 548 -4 617 116 1023 609 1140 1386 23 149 31
505 16 637 -93 786 -561 1297 -1239 1352 -320 26 -586 -50 -830 -236 -40 -30
-92 -77 -116 -104 -24 -27 -47 -49 -50 -49 -3 0 -6 331 -6 735 l0 735 -315 0
-315 0 0 -2195z m1570 539 c197 -21 400 -149 499 -318 103 -174 161 -455 161
-782 0 -301 -48 -546 -146 -749 -140 -290 -383 -437 -698 -423 -392 18 -677
296 -757 738 -21 111 -18 521 4 670 49 331 134 539 281 685 161 160 347 210
656 179z"/>
<path d="M10640 6399 c-36 -4 -108 -18 -160 -30 -438 -100 -748 -347 -945
-754 -128 -264 -189 -536 -202 -900 -27 -799 329 -1414 942 -1623 188 -64 274
-76 540 -76 201 1 259 5 359 22 278 51 490 160 690 356 194 190 353 487 391
734 l7 42 -315 0 -315 0 -6 -54 c-15 -114 -115 -273 -234 -371 -151 -125 -327
-185 -541 -185 -206 0 -358 40 -493 129 -159 105 -263 262 -316 482 -20 81
-42 235 -42 292 l0 27 1150 0 1150 0 0 73 c-1 243 -40 562 -95 760 -170 622
-534 984 -1080 1072 -98 16 -373 18 -485 4z m310 -559 c192 -23 325 -84 446
-205 66 -65 89 -97 128 -175 25 -52 55 -126 66 -165 20 -67 50 -231 50 -267 0
-17 -46 -18 -821 -18 l-822 0 7 72 c8 86 54 229 102 317 127 231 340 392 579
436 88 17 158 18 265 5z"/>
<path d="M24300 3655 l0 -65 95 0 95 0 0 -225 0 -225 70 0 70 0 0 225 0 225
95 0 95 0 0 65 0 65 -260 0 -260 0 0 -65z"/>
<path d="M24870 3430 l0 -290 70 0 70 0 1 218 1 217 59 -180 c32 -99 64 -197
69 -217 l11 -38 59 0 c58 0 59 1 68 33 5 17 31 115 58 217 l49 185 3 -217 2
-218 70 0 70 0 0 290 0 290 -118 0 -118 0 -43 -177 c-24 -98 -47 -181 -51
-186 -3 -4 -26 76 -50 178 l-44 185 -118 0 -118 0 0 -290z"/>
</g>
</svg>
